<svg xmlns="http://www.w3.org/2000/svg" viewBox="0 0 200.55 178.32"><defs><style>.a{fill:#fff;opacity:0.65;}.b{fill:#d6481a;}.c{fill:#f9beaf;opacity:0.52;}.d{fill:#af3312;}</style></defs><title>Element 5</title><path class="a" d="M47.44,0c-.35,1,4.84,63.78,4.84,63.78L0,54.08,52.63,69,23.2,109.83,56.43,72.09l17.31,19L60.24,67.24l18.35-9L58.86,63.09Z"/><polygon class="b" points="126.95 78.96 101.81 55.66 58.26 75.28 57.04 119.44 124.5 178.32 200.55 123.74 199.33 77.12 163.14 54.43 126.95 78.96"/><polygon class="c" points="126.95 78.96 124.5 90.62 101.81 55.66 126.95 78.96"/><polygon class="d" points="126.95 78.96 163.14 54.43 124.5 90.62 126.95 78.96"/><path class="d" d="M124.5,178.32c1.23-1.23,61.95-56.43,61.95-56.43l12.88-44.77,1.23,46.61Z"/><polygon class="d" points="58.26 75.28 57.04 119.44 124.5 178.32 66.24 115.76 58.26 75.28"/><polygon class="c" points="162.53 64.86 144.74 84.48 191.97 77.74 162.53 64.86"/></svg>